<svg width="160" height="160" viewBox="0 0 160 160" fill="none" xmlns="http://www.w3.org/2000/svg" role="img" aria-labelledby="title desc">
  <title id="title">Lottery Lab README mark</title>
  <desc id="desc">A README-only mark with lottery balls, a data arc, and the LL initials.</desc>
  <rect x="10" y="10" width="140" height="140" rx="34" fill="#FFF8EC"/>
  <rect x="10" y="10" width="140" height="140" rx="34" stroke="#D9CBB6" stroke-width="2"/>
  <path d="M38 92C48 56 77 39 116 42" stroke="#264C78" stroke-width="8" stroke-linecap="round"/>
  <path d="M44 108C60 123 86 127 111 115" stroke="#D4A83F" stroke-width="8" stroke-linecap="round"/>
  <circle cx="53" cy="75" r="18" fill="#D94A45"/>
  <circle cx="53" cy="75" r="18" stroke="#8F2524" stroke-width="3"/>
  <circle cx="101" cy="83" r="18" fill="#2F6FA8"/>
  <circle cx="101" cy="83" r="18" stroke="#1E4267" stroke-width="3"/>
  <circle cx="86" cy="49" r="10" fill="#F5D77A" stroke="#A37D22" stroke-width="3"/>
  <path d="M45 69H61M53 61V89" stroke="#FFF8EC" stroke-width="5" stroke-linecap="round"/>
  <path d="M94 75V91H109" stroke="#FFF8EC" stroke-width="5" stroke-linecap="round" stroke-linejoin="round"/>
  <path d="M70 105L78 94L87 108L96 96" stroke="#264C78" stroke-width="4" stroke-linecap="round" stroke-linejoin="round"/>
  <text x="80" y="137" text-anchor="middle" fill="#1E2B3A" font-family="Inter, ui-sans-serif, system-ui, -apple-system, BlinkMacSystemFont, 'Segoe UI', sans-serif" font-size="16" font-weight="700" letter-spacing="1">LOTTERY LAB</text>
</svg>
